<svg width="101" height="89" viewBox="0 0 101 89" fill="none" xmlns="http://www.w3.org/2000/svg">
<path fill-rule="evenodd" clip-rule="evenodd" d="M56.5622 3.5C53.8679 -1.16667 47.1322 -1.16666 44.4379 3.5L1.56961 77.75C-1.1247 82.4167 2.24317 88.25 7.63177 88.25H93.3683C98.7569 88.25 102.125 82.4167 99.4305 77.75L56.5622 3.5ZM55.7074 26.0979C53.4031 22.0719 47.597 22.0719 45.2927 26.0979L22.7782 65.4336C19.4846 71.1879 26.581 77.2452 31.7468 73.0888L46.7388 61.0263C48.935 59.2592 52.0651 59.2592 54.2613 61.0263L69.2533 73.0888C74.4191 77.2452 81.5155 71.188 78.2219 65.4336L55.7074 26.0979Z" fill="white"/>
</svg>
