<svg width="510" height="135" viewBox="0 0 510 135" fill="none" xmlns="http://www.w3.org/2000/svg">
<path d="M191.34 99.7361H177.335L198.676 37.5218H215.519L236.829 99.7361H222.823L207.339 51.7388H206.855L191.34 99.7361ZM190.465 75.2817H223.547V85.5496H190.465V75.2817ZM256.886 37.5218V99.7361H244.028V37.5218H256.886ZM291.847 53.0755V62.7964H263.928V53.0755H291.847ZM270.265 41.8964H283.124V85.3977C283.124 86.5926 283.306 87.5241 283.668 88.1924C284.03 88.8406 284.533 89.2962 285.178 89.5595C285.842 89.8227 286.605 89.9544 287.471 89.9544C288.074 89.9544 288.679 89.9037 289.282 89.8025C289.886 89.681 290.349 89.5899 290.671 89.5291L292.693 99.159C292.049 99.3615 291.144 99.5943 289.976 99.8576C288.809 100.141 287.39 100.313 285.721 100.374C282.621 100.496 279.905 100.08 277.57 99.1286C275.257 98.1767 273.456 96.6984 272.167 94.6934C270.879 92.6885 270.246 90.1569 270.265 87.0989V41.8964ZM300.224 99.7361V53.0755H313.083V99.7361H300.224ZM306.684 47.0606C304.771 47.0606 303.133 46.4226 301.763 45.1468C300.415 43.8507 299.742 42.3014 299.742 40.4989C299.742 38.7168 300.415 37.1877 301.763 35.9119C303.133 34.6157 304.771 33.9677 306.684 33.9677C308.595 33.9677 310.225 34.6157 311.574 35.9119C312.942 37.1877 313.626 38.7168 313.626 40.4989C313.626 42.3014 312.942 43.8507 311.574 45.1468C310.225 46.4226 308.595 47.0606 306.684 47.0606ZM348.044 53.0755V62.7964H320.123V53.0755H348.044ZM326.462 41.8964H339.321V85.3977C339.321 86.5926 339.502 87.5241 339.864 88.1924C340.226 88.8406 340.729 89.2962 341.373 89.5595C342.037 89.8227 342.802 89.9544 343.667 89.9544C344.271 89.9544 344.874 89.9037 345.478 89.8025C346.083 89.681 346.545 89.5899 346.866 89.5291L348.889 99.159C348.245 99.3615 347.341 99.5943 346.173 99.8576C345.006 100.141 343.587 100.313 341.916 100.374C338.818 100.496 336.101 100.08 333.767 99.1286C331.452 98.1767 329.651 96.6984 328.364 94.6934C327.076 92.6885 326.442 90.1569 326.462 87.0989V41.8964ZM386.152 79.8689V53.0755H399.011V99.7361H386.665V91.2607H386.183C385.136 93.9946 383.395 96.192 380.961 97.8527C378.546 99.5133 375.598 100.344 372.117 100.344C369.017 100.344 366.29 99.6348 363.937 98.2172C361.582 96.7995 359.741 94.7846 358.413 92.172C357.105 89.5595 356.441 86.4306 356.421 82.7852V53.0755H369.278V80.4764C369.3 83.2307 370.034 85.4078 371.483 87.0078C372.931 88.6076 374.874 89.4076 377.308 89.4076C378.858 89.4076 380.306 89.0532 381.655 88.3444C383.003 87.6153 384.09 86.542 384.914 85.1243C385.76 83.7067 386.172 81.9549 386.152 79.8689ZM426.381 100.496C422.859 100.496 419.67 99.5843 416.812 97.7615C413.975 95.9186 411.721 93.215 410.051 89.6506C408.401 86.066 407.576 81.6713 407.576 76.4665C407.576 71.12 408.432 66.6748 410.141 63.1305C411.852 59.5663 414.127 56.903 416.963 55.1412C419.82 53.3589 422.949 52.468 426.351 52.468C428.947 52.468 431.109 52.9135 432.84 53.8046C434.592 54.6754 435.999 55.769 437.066 57.0854C438.152 58.3815 438.978 59.6574 439.542 60.9129H439.933V37.5218H452.762V99.7361H440.085V92.2631H439.542C438.937 93.5593 438.082 94.8453 436.976 96.1212C435.889 97.3767 434.471 98.4198 432.719 99.2501C430.988 100.08 428.877 100.496 426.381 100.496ZM430.456 90.1974C432.529 90.1974 434.28 89.6304 435.707 88.4962C437.156 87.3419 438.264 85.7318 439.028 83.6662C439.813 81.6004 440.206 79.1803 440.206 76.4059C440.206 73.6313 439.823 71.2213 439.058 69.1759C438.293 67.1304 437.187 65.5507 435.738 64.4368C434.289 63.323 432.529 62.766 430.456 62.766C428.343 62.766 426.562 63.3432 425.113 64.4977C423.664 65.652 422.568 67.2519 421.823 69.2974C421.078 71.3428 420.706 73.7123 420.706 76.4059C420.706 79.1196 421.078 81.5194 421.823 83.6054C422.588 85.6711 423.684 87.2913 425.113 88.4659C426.562 89.6202 428.343 90.1974 430.456 90.1974ZM484.464 100.647C479.695 100.647 475.59 99.6753 472.148 97.7312C468.727 95.7667 466.091 92.9921 464.239 89.4076C462.389 85.8028 461.464 81.5397 461.464 76.6184C461.464 71.8187 462.389 67.6063 464.239 63.9812C466.091 60.3561 468.698 57.5309 472.058 55.5057C475.438 53.4805 479.403 52.468 483.95 52.468C487.009 52.468 489.856 52.9641 492.493 53.9564C495.149 54.9286 497.464 56.3969 499.435 58.3613C501.427 60.3258 502.977 62.7964 504.083 65.7735C505.191 68.7302 505.743 72.1933 505.743 76.1627V79.717H466.594V71.6972H493.64C493.64 69.834 493.238 68.1834 492.433 66.7456C491.628 65.3077 490.511 64.1837 489.082 63.3737C487.673 62.5432 486.034 62.1281 484.161 62.1281C482.21 62.1281 480.48 62.5837 478.97 63.4952C477.481 64.3862 476.313 65.5912 475.469 67.1101C474.624 68.6087 474.191 70.2795 474.171 72.1225V79.7474C474.171 82.0561 474.593 84.051 475.438 85.7318C476.304 87.4128 477.521 88.7089 479.09 89.6202C480.66 90.5315 482.522 90.9872 484.675 90.9872C486.104 90.9872 487.411 90.7847 488.599 90.3797C489.786 89.9747 490.802 89.3671 491.648 88.5571C492.493 87.7469 493.137 86.7546 493.579 85.58L505.472 86.3698C504.868 89.2456 503.632 91.7568 501.759 93.9036C499.909 96.03 497.513 97.6907 494.575 98.8855C491.657 100.06 488.288 100.647 484.464 100.647Z" fill="black"/>
<path fill-rule="evenodd" clip-rule="evenodd" d="M84.2417 5.30443C80.1844 -1.76815 70.041 -1.76814 65.9835 5.30444L1.428 117.834C-2.62937 124.907 2.44233 133.748 10.5571 133.748H139.669C147.782 133.748 152.854 124.907 148.797 117.834L84.2417 5.30443ZM82.9545 39.5527C79.4843 33.4511 70.741 33.4511 67.2709 39.5527L33.3661 99.168C28.4062 107.889 39.0929 117.069 46.872 110.77L69.4485 92.4886C72.7558 89.8105 77.4694 89.8105 80.7767 92.4886L103.353 110.77C111.132 117.069 121.819 107.889 116.859 99.168L82.9545 39.5527Z" fill="black"/>
</svg>
